<?xml version="1.0" encoding="utf-8"?>
<!-- Uploaded to: SVG Repo, www.svgrepo.com, Generator: SVG Repo Mixer Tools -->
<svg width="800px" height="800px" viewBox="0 0 1024 1024" class="icon"  version="1.1" xmlns="http://www.w3.org/2000/svg"><path d="M537 950.3l-470-230v-482l470 212z" fill="#37BBEF" /><path d="M537 950.3l420-230v-480l-420 210z" fill="#2481BA" /><path d="M67 238.3l470 212 420-210L462.6 73.7z" fill="#3ED6FF" /><path d="M259.6 703l38.7 18v36.4l-38.7-17.9V703z m24.7-283.7c-64.5-30.5-117.2-7.8-120.8 50.4l38.8 18.2c3.6-38 39.1-52.5 82.1-32.2 45.4 21.4 82.3 73.5 82.3 116s-36.9 59.9-82.2 38.8L259.6 599v77l38.7 18v-41.2c60.2 21.5 107-4.6 107-62.8 0.1-62.7-54.1-139.1-121-170.7z" fill="#FFFFFF" /></svg>